<?xml version="1.0" encoding="UTF-8"?>
<svg version="1.1" xmlns="http://www.w3.org/2000/svg" width="256" height="256">
<path d="M0 0 C22.03852652 18.81159856 36.46579334 41.06373377 44.3515625 68.91015625 C44.69316406 70.08835937 45.03476563 71.2665625 45.38671875 72.48046875 C52.92056498 104.36791093 46.53869956 140.38566089 29.7109375 168.21484375 C19.22380228 184.89578124 5.20171214 199.62660904 -11.6484375 209.91015625 C-12.7209375 210.59335938 -13.7934375 211.2765625 -14.8984375 211.98046875 C-42.75922794 228.94201478 -78.25061189 233.92648545 -110.03027344 226.74707031 C-117.81941729 224.77736357 -125.2980262 222.14033195 -132.6484375 218.91015625 C-133.30263672 218.62688477 -133.95683594 218.34361328 -134.63085938 218.05175781 C-164.72593234 204.76588414 -188.43262339 179.18859339 -200.51953125 148.71386719 C-202.47890077 143.51521742 -204.1350825 138.25415274 -205.6484375 132.91015625 C-205.99003906 131.73195312 -206.33164063 130.55375 -206.68359375 129.33984375 C-214.21743998 97.45240157 -207.83557456 61.43465161 -191.0078125 33.60546875 C-172.71931393 4.51560818 -145.47270495 -14.79440926 -112.6484375 -24.08984375 C-111.47023438 -24.43144531 -110.29203125 -24.77304687 -109.078125 -25.125 C-71.91216204 -33.90596927 -29.43835184 -24.14652242 0 0 Z " fill="#2B2E3A" transform="translate(208.6484375,27.08984375)"/>
<path d="M0 0 C0.495 1.98 0.495 1.98 1 4 C-3.70745414 5.88298166 -8.33921809 7.35957393 -13.25 8.625 C-34.80652903 14.72807713 -54.94498248 26.59679711 -72 41 C-72.54495117 41.45987305 -73.08990234 41.91974609 -73.65136719 42.39355469 C-88.66006363 55.24447912 -102.46820183 71.63736107 -104.84375 91.9375 C-104.8953125 92.618125 -104.946875 93.29875 -105 94 C-104.24074219 94.12761719 -103.48148438 94.25523437 -102.69921875 94.38671875 C-98.53940753 95.33185675 -95.27145243 97.38178782 -92.625 100.75 C-91.34430552 105.36050013 -91.31059748 109.40348891 -93.1875 113.75 C-95.80327904 116.99717398 -97.84541644 119.52615361 -102.078125 120.45703125 C-106.67823428 120.7934338 -109.41424163 120.14611956 -113 117.1875 C-116.31521019 114.07949045 -116.9359821 111.78101841 -117.3125 107.1875 C-117.27244992 102.85408136 -115.82329519 100.32152375 -113 97 C-112.34 97 -111.68 97 -111 97 C-111.04640625 96.41734375 -111.0928125 95.8346875 -111.140625 95.234375 C-111.92448759 77.42949608 -100.75455109 61.82766526 -89.32226562 49.13769531 C-69.34352494 27.63142715 -31.04427221 -1.26711315 0 0 Z " fill="#99E1EF" transform="translate(153,73)"/>
<path d="M0 0 C4.12767723 1.78240608 6.51767858 4.27651787 9 8 C9.17402344 9.21623047 9.17402344 9.21623047 9.3515625 10.45703125 C10.18693301 13.73309272 11.36811754 14.4294091 14.125 16.3125 C33.92467821 30.91162982 40.65942932 56.77646871 44.31030273 79.97143555 C45.34692408 87.78474777 45.28695961 95.69365338 45.3125 103.5625 C45.31511841 104.3333493 45.31773682 105.10419861 45.32043457 105.89840698 C45.32671084 123.21217497 44.00564455 139.97512533 37 156 C35.68 155.67 34.36 155.34 33 155 C33.62334092 150.46960256 34.34942203 145.97894324 35.19140625 141.484375 C40.94447609 109.57551019 41.49175101 77.53455221 29 47 C28.61569824 46.04794678 28.61569824 46.04794678 28.22363281 45.07666016 C24.28914426 35.62549537 17.88258925 24.91973257 8.66796875 19.671875 C7.84232422 19.33929688 7.84232422 19.33929688 7 19 C6.7525 19.61875 6.505 20.2375 6.25 20.875 C4.74042934 23.44127012 3.72865816 23.89981278 1 25 C-3.20365883 25.57903708 -6.91614049 25.42411894 -10.875 23.875 C-14.63374607 20.55845935 -16.1506139 16.93861973 -16.5 12 C-16.3286626 7.29273045 -14.30249196 5.22568982 -11 2 C-7.28671335 -0.47552443 -4.30393027 -0.54010105 0 0 Z " fill="#98E0EF" transform="translate(131,29)"/>
<path d="M0 0 C2.31640625 -0.20703125 2.31640625 -0.20703125 5 0 C6.52734375 1.36328125 6.52734375 1.36328125 7.9375 3.3125 C13.06533464 9.60827962 19.5303234 14.17575944 26 19 C26.98613281 19.7528125 27.97226563 20.505625 28.98828125 21.28125 C51.64249241 37.84432889 80.04352352 50.46555437 108.4375 50.3125 C109.43724854 50.31121094 110.43699707 50.30992187 111.46704102 50.30859375 C118.695424 50.21452777 125.15682798 49.47237183 132 47 C131.67 46.01 131.34 45.02 131 44 C130.49845798 37.8811874 130.92211295 34.89346446 135 30 C139.25251383 27.16499078 143.00657594 27.35543671 148 28 C151.85544798 29.99657127 153.59805092 31.39707638 156 35 C156.61405598 39.2585181 156.47919235 42.95034057 154.6875 46.875 C150.84 51.72 150.84 51.72 147 53 C139.88761427 53.2294318 139.88761427 53.2294318 136.58203125 52.375 C133.34018462 51.90417205 131.57374196 52.63633309 128.5625 53.875 C106.96877699 62.65992856 80.44875182 54.53186063 60 46 C47.5737496 40.53809278 35.94701538 34.02094541 25 26 C24.39961914 25.56042969 23.79923828 25.12085938 23.18066406 24.66796875 C14.9670643 18.58122211 6.38848367 12.04427434 0 4 C0 2.68 0 1.36 0 0 Z " fill="#99E0EF" transform="translate(63,140)"/>
<path d="M0 0 C10.75808463 -0.75495331 22.39032891 1.76475518 31.1328125 8.296875 C36.62730378 13.30858672 40.63549989 18.92869411 41.1796875 26.5 C41.58729594 42.80433754 34.19840538 56.11130163 24.859375 69.05859375 C22.87384005 71.13172583 21.80838072 71.65827226 19 72 C18.28125 69.7734375 18.28125 69.7734375 18 67 C19.40625 64.8515625 19.40625 64.8515625 21.5 62.625 C25.14764559 58.36834504 27.63048116 54.18448866 29.9375 49.125 C30.23140625 48.48256348 30.5253125 47.84012695 30.828125 47.17822266 C33.43768657 41.29588748 34.22423126 36.53919538 34.3125 30.125 C34.34150391 29.43019531 34.37050781 28.73539063 34.40039062 28.01953125 C34.48139728 21.40191034 31.91474303 18.01048019 27.5 13.375 C20.66420977 8.03722929 11.61630278 6.59133895 3.1796875 6.2734375 C1 6 1 6 -1 4 C-0.625 1.875 -0.625 1.875 0 0 Z " fill="#97DDEC" transform="translate(172,70)"/>
<path d="M0 0 C1.796875 0.0390625 1.796875 0.0390625 4 1 C5.26094114 3.46784194 6.27401166 5.79785375 7.25 8.375 C11.39978237 18.53879559 16.88634066 27.55909652 26 34 C26.86625 34.61875 27.7325 35.2375 28.625 35.875 C35.14721037 38.04907012 42.92951878 38.34390252 49.3125 35.5 C56.73337094 31.06310032 62.1041016 23.97294621 67 17 C68.32 17.66 69.64 18.32 71 19 C67.20613745 29.53028189 58.82101559 37.4468825 48.89453125 42.23828125 C42.30598918 44.8872827 35.03935162 45.14773382 28.4375 42.4375 C15.6472744 35.94123427 7.66340032 25.41628362 1.875 12.5625 C1.56739746 11.88840088 1.25979492 11.21430176 0.94287109 10.51977539 C-0.69955847 6.63418139 -1.35801764 4.05063882 0 0 Z " fill="#98DEED" transform="translate(89,184)"/>
<path d="M0 0 C0.92876953 -0.00322266 1.85753906 -0.00644531 2.81445312 -0.00976562 C8.80144096 0.03644972 14.1390231 0.82281965 19.9375 2.3125 C19.6075 3.9625 19.2775 5.6125 18.9375 7.3125 C17.82375 7.1475 16.71 6.9825 15.5625 6.8125 C1.56670835 5.30662368 -13.23978391 4.69390344 -25.33984375 12.91796875 C-28.93167678 15.82564311 -31.58110381 18.86831144 -33.0625 23.3125 C-34.02637444 33.62229624 -33.01405138 41.18475809 -28.27734375 50.421875 C-27.0625 53.3125 -27.0625 53.3125 -27.37890625 55.703125 C-27.60449219 56.23421875 -27.83007812 56.7653125 -28.0625 57.3125 C-29.90234375 57.09375 -29.90234375 57.09375 -32.0625 56.3125 C-34.21926499 53.23315282 -35.58643244 49.76157786 -37.0625 46.3125 C-37.38734375 45.58417969 -37.7121875 44.85585937 -38.046875 44.10546875 C-41.10759787 36.32372522 -41.62442633 27.25147 -38.4375 19.4375 C-33.43788952 9.92604591 -26.54044183 5.06251385 -16.45703125 1.69140625 C-10.92028732 0.08244667 -5.73414614 -0.09989802 0 0 Z " fill="#98DFEE" transform="translate(82.0625,69.6875)"/>
<path d="M0 0 C4.10198969 1.34246935 5.88827306 2.64878144 8.4375 6.125 C9.03610081 9.71660485 8.69053004 11.56833391 7.1875 14.875 C5.28363263 17.32282948 4.41442549 18.29807625 1.4375 19.125 C-2.31498912 18.99098253 -4.78994076 18.60042107 -8 16.625 C-10.00499007 13.41701589 -10.25372124 11.06901205 -10.07421875 7.32421875 C-9.49428665 4.83183881 -8.83789253 3.75905532 -7 2 C-3.5625 0.125 -3.5625 0.125 0 0 Z " fill="#9AE3F1" transform="translate(128.5625,123.875)"/>
<path d="M0 0 C1.9375 1.1875 1.9375 1.1875 3 3 C3.70541917 7.0561602 3.32120577 8.54252512 0.9375 11.9375 C-2 14 -2 14 -5.625 14.0625 C-9 13 -9 13 -10.9375 11.3125 C-12.35295627 8.23180105 -12.55879958 6.35279749 -12 3 C-8.26005342 -1.41993687 -5.4320109 -1.50889192 0 0 Z " fill="#303743" transform="translate(53,174)"/>
<path d="M0 0 C2 1.625 2 1.625 3 4 C2.93416738 7.75245951 2.81598805 10.06312483 0.3125 12.9375 C-2.76819895 14.35295627 -4.64720251 14.55879958 -8 14 C-10.4375 11.9375 -10.4375 11.9375 -12 9 C-12 5.19715329 -11.7968187 2.98069994 -9.375 0 C-5.88418213 -1.46981805 -3.60851044 -0.98413921 0 0 Z " fill="#303642" transform="translate(132,35)"/>
<path d="M0 0 C2.875 1.625 2.875 1.625 5 4 C5.625 6.9375 5.625 6.9375 5 10 C2.70985284 13.0099077 1.20864386 14.69783903 -2.5 15.625 C-6.25999106 14.68500224 -7.7473603 13.11394311 -10 10 C-10 6.43116591 -9.68455497 4.11690548 -7.8125 1.0625 C-5.03088363 -0.5681027 -3.16707399 -0.44339036 0 0 Z " fill="#303642" transform="translate(209,173)"/>
</svg>
